<svg width="120" height="121" viewBox="0 0 120 121" xmlns="http://www.w3.org/2000/svg"><title>Icon-More</title><g fill="none" fill-rule="evenodd"><path d="M60 12.5c26.467 0 48 21.533 48 48s-21.533 48-48 48-48-21.533-48-48 21.533-48 48-48m0-12C26.863.5 0 27.363 0 60.5s26.863 60 60 60 60-26.863 60-60S93.137.5 60 .5" fill="#231F1F"/><path d="M43.146 60.5c0 5.18-4.198 9.377-9.377 9.377-5.18 0-9.38-4.198-9.38-9.377 0-5.18 4.2-9.377 9.378-9.377s9.376 4.198 9.376 9.377m52.464 0c0 5.18-4.198 9.377-9.377 9.377-5.177 0-9.375-4.198-9.375-9.377 0-5.18 4.198-9.377 9.377-9.377 5.18 0 9.378 4.198 9.378 9.377m-26.233 0c0 5.18-4.198 9.377-9.377 9.377-5.18 0-9.377-4.198-9.377-9.377 0-5.18 4.198-9.377 9.377-9.377 5.18 0 9.377 4.198 9.377 9.377" fill="#000"/></g></svg>