<svg width="120" height="121" viewBox="0 0 120 121" xmlns="http://www.w3.org/2000/svg"><title>Icon-Clear</title><g fill="#231F1F" fill-rule="evenodd"><path d="M60 12.115c26.467 0 48 21.533 48 48s-21.533 48-48 48-48-21.533-48-48 21.533-48 48-48m0-12c-33.137 0-60 26.863-60 60s26.863 60 60 60 60-26.863 60-60-26.863-60-60-60"/><path d="M84.248 76.025L67.984 59.76 83.54 44.206l-8.483-8.485L59.5 51.277 43.943 35.72l-8.484 8.485L51.015 59.76 34.752 76.026l8.484 8.484L59.5 68.245 75.764 84.51l8.484-8.485"/></g></svg>