<svg width="120" height="120" viewBox="0 0 120 120" xmlns="http://www.w3.org/2000/svg"><title>Icon-Calendar</title><path d="M108 11H94V4c0-2.21-1.79-4-4-4s-4 1.79-4 4v7H33V4c0-2.21-1.79-4-4-4s-4 1.79-4 4v7H12C5.372 11 0 16.373 0 23v85c0 6.627 5.372 12 12 12h96c6.627 0 12-5.373 12-12V23c0-6.627-5.373-12-12-12zm-22 8.155V27c0 2.21 1.79 4 4 4s4-1.79 4-4v-7.845c2.96 1.473 5 4.52 5 8.053 0 4.97-4.03 9-9 9s-9-4.03-9-9c0-3.532 2.04-6.58 5-8.053zm-61 0V27c0 2.21 1.79 4 4 4s4-1.79 4-4v-7.845c2.96 1.473 5 4.52 5 8.053 0 4.97-4.03 9-9 9s-9-4.03-9-9c0-3.532 2.04-6.58 5-8.053zm87 89.053c0 2.168-1.832 3.792-4 3.792H85.348L112 86.666v21.542zm-27-6.68v-10.32C85 89.04 86.832 87 89 87h11.017L85 101.527zM112 79H89c-6.6 0-12 5.608-12 12.208V112H12c-2.168 0-4-1.624-4-3.792V44h104v35z" fill-rule="evenodd"/></svg>