<svg style="display: none;" xmlns="http://www.w3.org/2000/svg" xmlns:sketch="http://www.bohemiancoding.com/sketch/ns" xmlns:xlink="http://www.w3.org/1999/xlink"><symbol viewBox="0 0 120 121" id="icon-add"><title>Icon-Add</title><g><path d="M60 12.115c26.467 0 48 21.533 48 48s-21.533 48-48 48-48-21.533-48-48 21.533-48 48-48m0-12c-33.137 0-60 26.863-60 60s26.863 60 60 60 60-26.863 60-60-26.863-60-60-60"/><path d="M66 89V66h22V54H66V32H54v22H31v12h23v23h12"/></g></symbol><symbol viewBox="0 0 120 120" id="icon-calendar"><title>Icon-Calendar</title><path d="M108 11H94V4c0-2.21-1.79-4-4-4s-4 1.79-4 4v7H33V4c0-2.21-1.79-4-4-4s-4 1.79-4 4v7H12C5.372 11 0 16.373 0 23v85c0 6.627 5.372 12 12 12h96c6.627 0 12-5.373 12-12V23c0-6.627-5.373-12-12-12zm-22 8.155V27c0 2.21 1.79 4 4 4s4-1.79 4-4v-7.845c2.96 1.473 5 4.52 5 8.053 0 4.97-4.03 9-9 9s-9-4.03-9-9c0-3.532 2.04-6.58 5-8.053zm-61 0V27c0 2.21 1.79 4 4 4s4-1.79 4-4v-7.845c2.96 1.473 5 4.52 5 8.053 0 4.97-4.03 9-9 9s-9-4.03-9-9c0-3.532 2.04-6.58 5-8.053zm87 89.053c0 2.168-1.832 3.792-4 3.792H85.348L112 86.666v21.542zm-27-6.68v-10.32C85 89.04 86.832 87 89 87h11.017L85 101.527zM112 79H89c-6.6 0-12 5.608-12 12.208V112H12c-2.168 0-4-1.624-4-3.792V44h104v35z"/></symbol><symbol viewBox="0 0 68 44" id="icon-caret-down"><title>Icon-CaretDown</title><path d="M57.28 2l8.473 8.473L33.876 42.35 2 10.473 10.473 2l23.403 23.403L57.28 2z" stroke="#000"/></symbol><symbol viewBox="0 0 44 68" id="icon-caret-left"><title>Icon-CaretLeft</title><path d="M42.05 57.578l-8.47 8.472L1.702 34.176 33.578 2.298l8.473 8.474-23.4 23.403 23.4 23.403z" stroke="#000"/></symbol><symbol viewBox="0 0 44 68" id="icon-caret-right"><title>Icon-CaretRight</title><path d="M1.702 10.772l8.473-8.474L42.05 34.175 10.176 66.05l-8.474-8.47 23.403-23.403L1.702 10.772z" stroke="#000"/></symbol><symbol viewBox="0 0 68 44" id="icon-caret-up"><title>Icon-CaretUp</title><path d="M10.473 42.35L2 33.876 33.876 2l31.877 31.876-8.473 8.474-23.404-23.404L10.473 42.35z" stroke="#000"/></symbol><symbol viewBox="0 0 120 121" id="icon-clear"><title>Icon-Clear</title><g><path d="M60 12.115c26.467 0 48 21.533 48 48s-21.533 48-48 48-48-21.533-48-48 21.533-48 48-48m0-12c-33.137 0-60 26.863-60 60s26.863 60 60 60 60-26.863 60-60-26.863-60-60-60"/><path d="M84.248 76.025L67.984 59.76 83.54 44.206l-8.483-8.485L59.5 51.277 43.943 35.72l-8.484 8.485L51.015 59.76 34.752 76.026l8.484 8.484L59.5 68.245 75.764 84.51l8.484-8.485"/></g></symbol><symbol viewBox="0 0 93 92" id="icon-close"><title>Icon-Close</title><g><path d="M86.24 91.84L1.488 7.086l6.76-6.76L93 85.082l-6.76 6.76"/><path d="M6.758 91.84L0 85.08 84.754.328l6.76 6.76L6.757 91.84"/></g></symbol><symbol viewBox="0 0 110 105" id="icon-favorite"><title>Icons-Favorite</title><path d="M55.052 27.616l7.323 20.328 6.22.197 15.375.49L66.9 61.875l6.024 20.75L55.052 70.48 37.18 82.625l6.023-20.75-17.07-13.247 15.375-.486 6.22-.193 7.324-20.33m0-27.03L41.22 38.983.423 40.272 32.67 65.298l-11.38 39.197L55.052 81.56l33.76 22.934-11.378-39.197 32.245-25.022-40.8-1.29L55.05.585"/></symbol><symbol viewBox="0 0 81 120" id="icon-location"><title>Icon-Location</title><path d="M40.5.036c-22.09 0-40 17.908-40 40 0 22.09 40 80 40 80s40-57.91 40-80c0-22.092-17.91-40-40-40zm0 61c-11.598 0-21-9.402-21-21s9.402-21 21-21 21 9.402 21 21-9.402 21-21 21z"/></symbol><symbol viewBox="0 0 79 62" id="icon-menu"><title>Icon-Menu</title><path d="M0 0h79v12H0V0zm0 25h79v12H0V25zm0 25h79v12H0V50z"/></symbol><symbol viewBox="0 0 120 121" id="icon-more"><title>Icon-More</title><g><path d="M60 12.5c26.467 0 48 21.533 48 48s-21.533 48-48 48-48-21.533-48-48 21.533-48 48-48m0-12C26.863.5 0 27.363 0 60.5s26.863 60 60 60 60-26.863 60-60S93.137.5 60 .5"/><path d="M43.146 60.5c0 5.18-4.198 9.377-9.377 9.377-5.18 0-9.38-4.198-9.38-9.377 0-5.18 4.2-9.377 9.378-9.377s9.376 4.198 9.376 9.377m52.464 0c0 5.18-4.198 9.377-9.377 9.377-5.177 0-9.375-4.198-9.375-9.377 0-5.18 4.198-9.377 9.377-9.377 5.18 0 9.378 4.198 9.378 9.377m-26.233 0c0 5.18-4.198 9.377-9.377 9.377-5.18 0-9.377-4.198-9.377-9.377 0-5.18 4.198-9.377 9.377-9.377 5.18 0 9.377 4.198 9.377 9.377"/></g></symbol><symbol viewBox="0 0 120 120" id="icon-remove"><title>Icon Remove</title><g><path d="M60 12c26.467 0 48 21.533 48 48s-21.533 48-48 48-48-21.533-48-48 21.533-48 48-48m0-12C26.863 0 0 26.863 0 60s26.863 60 60 60 60-26.863 60-60S93.137 0 60 0"/><path d="M31 55h57v12H31V55z"/></g></symbol></svg>