<?xml version="1.0" encoding="UTF-8" standalone="no"?>
<svg width="81px" height="120px" viewBox="0 0 81 120" version="1.1" xmlns="http://www.w3.org/2000/svg" xmlns:xlink="http://www.w3.org/1999/xlink" xmlns:sketch="http://www.bohemiancoding.com/sketch/ns">
    <!-- Generator: Sketch 3.3.3 (12081) - http://www.bohemiancoding.com/sketch -->
    <title>Icon-Location</title>
    <desc>Created with Sketch.</desc>
    <defs></defs>
    <g id="Page-1" stroke="none" stroke-width="1" fill="none" fill-rule="evenodd" sketch:type="MSPage">
        <g id="Icon-Location" sketch:type="MSLayerGroup" transform="translate(-20.000000, 0.000000)" fill="#231F1F">
            <path d="M60.5,0.036 C38.409,0.036 20.5,17.944 20.5,40.036 C20.5,62.127 60.5,120.036 60.5,120.036 C60.5,120.036 100.5,62.127 100.5,40.036 C100.5,17.944 82.591,0.036 60.5,0.036 L60.5,0.036 Z M60.5,61.036 C48.902,61.036 39.5,51.634 39.5,40.036 C39.5,28.438 48.902,19.036 60.5,19.036 C72.098,19.036 81.5,28.438 81.5,40.036 C81.5,51.634 72.098,61.036 60.5,61.036 L60.5,61.036 Z" id="Fill-1" sketch:type="MSShapeGroup"></path>
        </g>
    </g>
</svg>