<?xml version="1.0" encoding="UTF-8" standalone="no"?>
<svg width="120px" height="121px" viewBox="0 0 120 121" version="1.1" xmlns="http://www.w3.org/2000/svg" xmlns:xlink="http://www.w3.org/1999/xlink" xmlns:sketch="http://www.bohemiancoding.com/sketch/ns">
    <!-- Generator: Sketch 3.3.3 (12081) - http://www.bohemiancoding.com/sketch -->
    <title>Icon-Add</title>
    <desc>Created with Sketch.</desc>
    <defs></defs>
    <g id="Page-1" stroke="none" stroke-width="1" fill="none" fill-rule="evenodd" sketch:type="MSPage">
        <g id="Icon-Add" sketch:type="MSLayerGroup" fill="#231F1F">
            <path d="M60,12.115 C86.467,12.115 108,33.648 108,60.115 C108,86.582 86.467,108.115 60,108.115 C33.533,108.115 12,86.582 12,60.115 C12,33.648 33.533,12.115 60,12.115 M60,0.115 C26.863,0.115 0,26.978 0,60.115 C0,93.252 26.863,120.115 60,120.115 C93.137,120.115 120,93.252 120,60.115 C120,26.978 93.137,0.115 60,0.115" id="Fill-1" sketch:type="MSShapeGroup"></path>
            <path d="M66,89 L66,66 L88,66 L88,54 L66,54 L66,32 L54,32 L54,54 L31,54 L31,66 L54,66 L54,89 L66,89" id="Fill-2" sketch:type="MSShapeGroup"></path>
        </g>
    </g>
</svg>