<?xml version="1.0" encoding="UTF-8" standalone="no"?>
<svg width="120px" height="120px" viewBox="0 0 120 120" version="1.1" xmlns="http://www.w3.org/2000/svg" xmlns:xlink="http://www.w3.org/1999/xlink" xmlns:sketch="http://www.bohemiancoding.com/sketch/ns">
    <!-- Generator: Sketch 3.3.3 (12081) - http://www.bohemiancoding.com/sketch -->
    <title>Imported Layers</title>
    <desc>Created with Sketch.</desc>
    <defs></defs>
    <g id="Page-1" stroke="none" stroke-width="1" fill="none" fill-rule="evenodd" sketch:type="MSPage">
        <g id="Imported-Layers" sketch:type="MSLayerGroup" fill="#231F1F">
            <path d="M60,12 C86.467,12 108,33.533 108,60 C108,86.467 86.467,108 60,108 C33.533,108 12,86.467 12,60 C12,33.533 33.533,12 60,12 M60,0 C26.863,0 0,26.863 0,60 C0,93.137 26.863,120 60,120 C93.137,120 120,93.137 120,60 C120,26.863 93.137,0 60,0" id="Fill-1" sketch:type="MSShapeGroup"></path>
            <path d="M31,55 L88,55 L88,67 L31,67 L31,55 Z" id="Fill-2" sketch:type="MSShapeGroup"></path>
        </g>
    </g>
</svg>