<?xml version="1.0" encoding="UTF-8" standalone="no"?>
<svg width="120px" height="120px" viewBox="0 0 120 120" version="1.1" xmlns="http://www.w3.org/2000/svg" xmlns:xlink="http://www.w3.org/1999/xlink" xmlns:sketch="http://www.bohemiancoding.com/sketch/ns">
    <!-- Generator: Sketch 3.3.3 (12081) - http://www.bohemiancoding.com/sketch -->
    <title>Icon-Calendar</title>
    <desc>Created with Sketch.</desc>
    <defs></defs>
    <g id="Page-1" stroke="none" stroke-width="1" fill="none" fill-rule="evenodd" sketch:type="MSPage">
        <path d="M108,11 L94,11 L94,4 C94,1.791 92.209,0 90,0 C87.791,0 86,1.791 86,4 L86,11 L33,11 L33,4 C33,1.791 31.209,0 29,0 C26.791,0 25,1.791 25,4 L25,11 L12,11 C5.372,11 0,16.373 0,23 L0,108 C0,114.627 5.372,120 12,120 L108,120 C114.627,120 120,114.627 120,108 L120,23 C120,16.373 114.627,11 108,11 L108,11 Z M86,19.155 L86,27 C86,29.209 87.791,31 90,31 C92.209,31 94,29.209 94,27 L94,19.155 C96.961,20.628 99,23.676 99,27.208 C99,32.179 94.971,36.208 90,36.208 C85.029,36.208 81,32.179 81,27.208 C81,23.676 83.039,20.628 86,19.155 L86,19.155 Z M25,19.155 L25,27 C25,29.209 26.791,31 29,31 C31.209,31 33,29.209 33,27 L33,19.155 C35.961,20.628 38,23.676 38,27.208 C38,32.179 33.971,36.208 29,36.208 C24.029,36.208 20,32.179 20,27.208 C20,23.676 22.039,20.628 25,19.155 L25,19.155 Z M112,108.208 C112,110.376 110.168,112 108,112 L85.348,112 L112,86.666 L112,108.208 L112,108.208 Z M85,101.527 L85,91.208 C85,89.04 86.832,87 89,87 L100.017,87 L85,101.527 L85,101.527 Z M112,79 L89,79 C82.4,79 77,84.608 77,91.208 L77,112 L12,112 C9.832,112 8,110.376 8,108.208 L8,44 L112,44 L112,79 L112,79 Z" id="Icon-Calendar" fill="#000000" sketch:type="MSShapeGroup"></path>
    </g>
</svg>